<?xml version="1.0" encoding="utf-8"?>
<!-- Generator: Adobe Illustrator 27.5.0, SVG Export Plug-In . SVG Version: 6.00 Build 0)  -->
<svg version="1.1" xmlns="http://www.w3.org/2000/svg" xmlns:xlink="http://www.w3.org/1999/xlink" x="0px" y="0px"
	 viewBox="0 0 500 500" style="enable-background:new 0 0 500 500;" xml:space="preserve">
<g id="BACKGROUND">
	<g>
		<g>
			<rect style="fill:#FFFFFF;" width="500" height="500"/>
		</g>
	</g>
</g>
<g id="OBJECTS">
	<g>
		<g>
			<g style="opacity:0.35;">
				<path style="fill:#C3ECFE;" d="M461.613,325.17c-0.953-3.289-1.445-6.688-1.212-10.251c1.002-15.349,13.338-27.08,16.428-41.905
					c3.014-14.46,1.166-30.845-10.313-41.249c-15.866-14.379-40.82-12.812-52.118-33.124c-10.116-18.186-7.908-40.221-18.935-58.386
					c-10.389-17.115-27.028-28.783-44.517-37.824c-25.323-13.092-54.741-24.381-83.557-23.967
					c-32.744,0.47-56.097,22.714-78.014,44.312c-19.294,19.014-53.289,17.29-43.383,66.415c8.823,43.756-11.992,40.507-31.053,56.66
					c-19.021,16.12-32.95,35.349-25.38,57.173c8.349,24.066-42.751,37.877-51.864,69.073c-6.181,21.16,26.288,22.948,48.385,22.948
					c22.097,0,211.157-1.799,291.124,0.704c22.041,0.69,43.192,1.393,65.136-1.3c9.31-1.143,18.806-3.559,26.131-9.418
					C491.397,366.691,467.335,344.928,461.613,325.17z"/>
			</g>
			<g id="XMLID_3_">
				<g>
					<path style="fill:#BAE9F4;" d="M437.676,393.276c-4.476-18.637-1.81-38.686,7.315-55.005l0.566,0.316
						c-9.046,16.179-11.688,36.057-7.251,54.536L437.676,393.276z"/>
				</g>
				<g id="XMLID_62_">
					<g>
						<path style="fill:#BAE9F4;" d="M442.951,342.972c0.132-3.381,1.528-6.698,3.853-9.156c0.57-0.603,1.293-1.192,2.121-1.133
							c0.227,0.016,0.461,0.089,0.617,0.255c0.252,0.267,0.235,0.686,0.166,1.046c-0.365,1.911-1.685,3.493-3.083,4.847
							C445.227,340.184,444.359,341.383,442.951,342.972"/>
					</g>
					<g>
						<path style="fill:#BAE9F4;" d="M440.423,349.373c1.462-3.052,4.059-5.543,7.168-6.878c0.762-0.327,1.66-0.581,2.396-0.199
							c0.202,0.105,0.388,0.264,0.466,0.479c0.125,0.345-0.057,0.723-0.263,1.026c-1.093,1.61-2.932,2.538-4.752,3.227
							C443.618,347.716,442.347,348.474,440.423,349.373"/>
					</g>
					<g>
						<path style="fill:#BAE9F4;" d="M437.834,357.925c1.078-3.207,3.351-5.998,6.274-7.702c0.716-0.418,1.576-0.78,2.354-0.491
							c0.214,0.079,0.418,0.215,0.521,0.418c0.167,0.327,0.032,0.724-0.135,1.051c-0.888,1.732-2.6,2.877-4.322,3.783
							C440.803,355.89,439.633,356.797,437.834,357.925"/>
					</g>
					<g>
						<path style="fill:#BAE9F4;" d="M436.432,366.544c1.078-3.207,3.351-5.998,6.274-7.702c0.716-0.418,1.577-0.78,2.354-0.491
							c0.214,0.079,0.418,0.215,0.521,0.418c0.167,0.327,0.032,0.724-0.135,1.051c-0.888,1.732-2.6,2.877-4.322,3.783
							C439.4,364.509,438.231,365.417,436.432,366.544"/>
					</g>
					<g>
						<path style="fill:#BAE9F4;" d="M436.065,378.122c0.74-3.302,2.711-6.313,5.442-8.311c0.669-0.49,1.487-0.939,2.29-0.732
							c0.221,0.057,0.438,0.171,0.561,0.362c0.199,0.308,0.107,0.717-0.026,1.059c-0.704,1.814-2.288,3.131-3.907,4.211
							C438.807,375.791,437.738,376.814,436.065,378.122"/>
					</g>
					<g>
						<path style="fill:#BAE9F4;" d="M436.621,386.546c0.536-3.1,2.256-6.158,4.748-8.44c0.611-0.56,1.365-1.109,2.138-1.066
							c0.212,0.012,0.424,0.076,0.552,0.225c0.205,0.242,0.138,0.625,0.029,0.957c-0.576,1.756-2.015,3.222-3.498,4.481
							C439.107,383.962,438.143,385.072,436.621,386.546"/>
					</g>
					<g>
						<path style="fill:#BAE9F4;" d="M439.441,352.362c-2.54-2.377-4.232-5.745-4.672-9.299c-0.108-0.871-0.108-1.859,0.459-2.497
							c0.156-0.175,0.36-0.318,0.587-0.335c0.366-0.027,0.68,0.268,0.916,0.566c1.253,1.581,1.646,3.724,1.814,5.777
							C438.714,348.628,439.098,350.143,439.441,352.362"/>
					</g>
					<g>
						<path style="fill:#BAE9F4;" d="M437.645,359.045c-3.034-1.702-5.482-4.569-6.757-7.915c-0.313-0.82-0.549-1.779-0.15-2.535
							c0.11-0.208,0.274-0.395,0.49-0.465c0.349-0.114,0.724,0.098,1.025,0.331c1.594,1.237,2.487,3.223,3.141,5.177
							C436.048,355.592,436.782,356.971,437.645,359.045"/>
					</g>
					<g>
						<path style="fill:#BAE9F4;" d="M436.389,367.931c-3.313-1.06-6.285-3.38-8.204-6.403c-0.47-0.741-0.894-1.634-0.654-2.453
							c0.066-0.225,0.189-0.441,0.387-0.554c0.319-0.181,0.729-0.049,1.071,0.119c1.809,0.893,3.082,2.66,4.113,4.444
							C434.134,364.867,435.129,366.072,436.389,367.931"/>
					</g>
					<g>
						<path style="fill:#BAE9F4;" d="M435.874,379.408c-2.995-1.769-5.379-4.69-6.579-8.063c-0.294-0.827-0.509-1.791-0.094-2.537
							c0.114-0.205,0.282-0.388,0.501-0.454c0.352-0.106,0.722,0.114,1.018,0.354c1.566,1.271,2.415,3.278,3.025,5.245
							C434.354,375.92,435.057,377.315,435.874,379.408"/>
					</g>
					<g>
						<path style="fill:#BAE9F4;" d="M436.839,387.626c-3.471-0.231-6.914-1.766-9.505-4.238c-0.635-0.606-1.261-1.37-1.226-2.223
							c0.01-0.234,0.077-0.474,0.243-0.631c0.266-0.253,0.696-0.223,1.068-0.142c1.971,0.43,3.632,1.84,5.062,3.322
							C433.912,385.196,435.168,386.125,436.839,387.626"/>
					</g>
				</g>
			</g>
			<path style="fill:#AFE1F2;" d="M476.058,393.858c0,1.392-101.687,2.52-227.125,2.52s-227.125-1.128-227.125-2.52
				s101.687-2.52,227.125-2.52S476.058,392.466,476.058,393.858z"/>
			<g>
				
					<line style="fill:none;stroke:#FFC840;stroke-width:2.986;stroke-linecap:round;stroke-linejoin:round;stroke-miterlimit:10;" x1="268.174" y1="101.13" x2="268.174" y2="122.785"/>
				
					<line style="fill:none;stroke:#FFC840;stroke-width:2.986;stroke-linecap:round;stroke-linejoin:round;stroke-miterlimit:10;" x1="223.067" y1="109.083" x2="230.473" y2="129.433"/>
				
					<line style="fill:none;stroke:#FFC840;stroke-width:2.986;stroke-linecap:round;stroke-linejoin:round;stroke-miterlimit:10;" x1="183.4" y1="131.985" x2="197.32" y2="148.574"/>
				
					<line style="fill:none;stroke:#FFC840;stroke-width:2.986;stroke-linecap:round;stroke-linejoin:round;stroke-miterlimit:10;" x1="153.959" y1="167.072" x2="172.713" y2="177.9"/>
				
					<line style="fill:none;stroke:#FFC840;stroke-width:2.986;stroke-linecap:round;stroke-linejoin:round;stroke-miterlimit:10;" x1="138.293" y1="210.113" x2="159.619" y2="213.873"/>
				
					<line style="fill:none;stroke:#FFC840;stroke-width:2.986;stroke-linecap:round;stroke-linejoin:round;stroke-miterlimit:10;" x1="138.293" y1="255.916" x2="159.619" y2="252.155"/>
				
					<line style="fill:none;stroke:#FFC840;stroke-width:2.986;stroke-linecap:round;stroke-linejoin:round;stroke-miterlimit:10;" x1="153.959" y1="298.956" x2="172.713" y2="288.129"/>
				
					<line style="fill:none;stroke:#FFC840;stroke-width:3;stroke-linecap:round;stroke-linejoin:round;stroke-miterlimit:10;" x1="183.002" y1="335.137" x2="196.987" y2="318.471"/>
				
					<line style="fill:none;stroke:#FFC840;stroke-width:3;stroke-linecap:round;stroke-linejoin:round;stroke-miterlimit:10;" x1="222.855" y1="358.146" x2="230.296" y2="337.702"/>
				
					<line style="fill:none;stroke:#FFC840;stroke-width:3;stroke-linecap:round;stroke-linejoin:round;stroke-miterlimit:10;" x1="268.174" y1="366.137" x2="268.174" y2="344.38"/>
				
					<line style="fill:none;stroke:#FFC840;stroke-width:2.986;stroke-linecap:round;stroke-linejoin:round;stroke-miterlimit:10;" x1="313.281" y1="356.945" x2="305.874" y2="336.596"/>
				
					<line style="fill:none;stroke:#FFC840;stroke-width:2.986;stroke-linecap:round;stroke-linejoin:round;stroke-miterlimit:10;" x1="352.947" y1="334.043" x2="339.028" y2="317.455"/>
				
					<line style="fill:none;stroke:#FFC840;stroke-width:2.986;stroke-linecap:round;stroke-linejoin:round;stroke-miterlimit:10;" x1="382.389" y1="298.956" x2="363.635" y2="288.129"/>
				
					<line style="fill:none;stroke:#FFC840;stroke-width:2.986;stroke-linecap:round;stroke-linejoin:round;stroke-miterlimit:10;" x1="398.055" y1="255.916" x2="376.728" y2="252.155"/>
				
					<line style="fill:none;stroke:#FFC840;stroke-width:2.986;stroke-linecap:round;stroke-linejoin:round;stroke-miterlimit:10;" x1="398.055" y1="210.113" x2="376.728" y2="213.873"/>
				
					<line style="fill:none;stroke:#FFC840;stroke-width:2.986;stroke-linecap:round;stroke-linejoin:round;stroke-miterlimit:10;" x1="382.389" y1="167.072" x2="363.635" y2="177.9"/>
				
					<line style="fill:none;stroke:#FFC840;stroke-width:2.986;stroke-linecap:round;stroke-linejoin:round;stroke-miterlimit:10;" x1="352.947" y1="131.985" x2="339.028" y2="148.574"/>
				
					<line style="fill:none;stroke:#FFC840;stroke-width:2.986;stroke-linecap:round;stroke-linejoin:round;stroke-miterlimit:10;" x1="313.281" y1="109.083" x2="305.874" y2="129.433"/>
			</g>
			<g>
				<path style="fill:#BAE9F4;" d="M285.935,393.28c44.221,0.602,91.027-1.507,135.249-0.905c1.484,0.02,6.315-0.404-1.745-5.602
					c-6.827-4.402-28.404-0.442-28.404-0.442s5.023-2.014,4.999-4.612c-0.023-2.599-1.993-4.883-4.358-5.961
					c-2.365-1.078-5.058-1.156-7.653-1.008c-5.28,0.302-10.509,1.472-15.414,3.449c2.081-1.28,2.716-4.418,1.296-6.406
					c-1.42-1.988-4.595-2.405-6.48-0.852c3.314-4.488,8.438-24.379-7.309-33.146c-19.738-10.988-34.728-1.946-37.926,4.667
					c-1.622-6.491-9.07-11.406-13.975-12.624c-11.187-2.778-18.475-1.954-28.919,2.923c-3.695,1.725-8.642,7.618-11.098,10.873
					c-3.847,5.098-4.447,11.878-4.658,18.261c-0.159,4.791-0.181,9.586-0.065,14.378"/>
			</g>
			<g>
				<path style="fill:#BAE9F4;" d="M94.8,393.338c-20.678,0.282-42.564-0.705-63.242-0.423c-0.694,0.009-2.953-0.189,0.816-2.619
					c3.192-2.058,13.282-0.207,13.282-0.207s-2.349-0.942-2.338-2.157c0.011-1.215,0.932-2.283,2.038-2.787
					c1.106-0.504,2.365-0.541,3.578-0.471c2.469,0.141,4.914,0.688,7.208,1.613c-0.973-0.598-1.27-2.066-0.606-2.995
					c0.664-0.93,2.148-1.125,3.03-0.398c-1.55-2.099-3.946-11.4,3.418-15.499c9.229-5.138,16.239-0.91,17.734,2.183
					c0.759-3.035,4.241-5.334,6.535-5.903c5.231-1.299,8.639-0.914,13.522,1.367c1.728,0.807,4.041,3.562,5.189,5.084
					c1.799,2.384,2.079,5.554,2.178,8.539c0.074,2.24,0.085,4.483,0.03,6.723"/>
			</g>
			<g>
				<g>
					<path style="fill:#FDEFEA;" d="M154.338,191.734l-11.484,118.979c-0.197,2.036-2.004,3.525-4.028,3.33l-19.197-1.853
						c-2.036-0.197-3.525-2.004-3.329-4.04l11.484-118.979c0.197-2.036,2.004-3.525,4.04-3.329l19.197,1.853
						C153.045,187.89,154.535,189.698,154.338,191.734z"/>
					<path style="fill:#F9A66E;" d="M151.84,191.493l-2.035,21.083l-21.558-2.081l2.035-21.083c0.063-0.65,0.652-1.135,1.301-1.072
						l19.197,1.853C151.43,190.256,151.903,190.844,151.84,191.493z"/>
					
						<rect x="126.074" y="213.609" transform="matrix(0.0961 -0.9954 0.9954 0.0961 -98.8558 340.0182)" style="fill:#FFB27E;" width="23.415" height="21.658"/>
					
						<rect x="138.339" y="201.331" transform="matrix(0.096 -0.9954 0.9954 0.096 -85.5584 330.1102)" style="fill:#A9D6D3;" width="1.255" height="21.658"/>
					
						<rect x="123.704" y="238.164" transform="matrix(0.0961 -0.9954 0.9954 0.0961 -125.4398 359.855)" style="fill:#FCBF95;" width="23.415" height="21.658"/>
					
						<rect x="135.969" y="225.886" transform="matrix(0.0961 -0.9954 0.9954 0.0961 -112.1516 349.9283)" style="fill:#A9D6D3;" width="1.255" height="21.658"/>
					
						<rect x="121.334" y="262.719" transform="matrix(0.0961 -0.9954 0.9954 0.0961 -152.0239 379.6918)" style="fill:#FFD2B3;" width="23.415" height="21.658"/>
					
						<rect x="133.599" y="250.442" transform="matrix(0.0961 -0.9954 0.9954 0.0961 -138.7355 369.7643)" style="fill:#A9D6D3;" width="1.255" height="21.658"/>
					<path style="fill:#FFE5D4;" d="M142.574,287.491l-2.218,22.982c-0.064,0.662-0.639,1.136-1.289,1.073l-19.197-1.853
						c-0.649-0.063-1.136-0.639-1.072-1.301l2.218-22.982L142.574,287.491z"/>
					
						<rect x="131.228" y="274.997" transform="matrix(0.096 -0.9954 0.9954 0.096 -165.3112 389.6239)" style="fill:#A9D6D3;" width="1.255" height="21.658"/>
					<g>
						
							<rect x="138.339" y="198.822" transform="matrix(0.096 -0.9954 0.9954 0.096 -85.5584 330.1102)" style="fill:#FDEFEA;" width="1.255" height="26.677"/>
					</g>
					<g>
						
							<rect x="135.969" y="223.377" transform="matrix(0.096 -0.9954 0.9954 0.096 -112.1426 349.948)" style="fill:#FDEFEA;" width="1.255" height="26.677"/>
					</g>
					<g>
						
							<rect x="133.599" y="247.932" transform="matrix(0.0961 -0.9954 0.9954 0.0961 -138.7355 369.7644)" style="fill:#FDEFEA;" width="1.255" height="26.677"/>
					</g>
					<g>
						
							<rect x="131.228" y="272.487" transform="matrix(0.0961 -0.9954 0.9954 0.0961 -165.3194 389.6003)" style="fill:#FDEFEA;" width="1.255" height="26.677"/>
					</g>
				</g>
				<g>
					<path style="fill:#FDEFEA;" d="M115.319,185.61l28.178,116.163c0.482,1.988-0.737,3.988-2.712,4.467l-18.743,4.547
						c-1.988,0.482-3.988-0.737-4.47-2.725L89.394,191.899c-0.482-1.988,0.737-3.988,2.725-4.47l18.743-4.546
						C112.837,182.403,114.837,183.623,115.319,185.61z"/>
					<path style="fill:#5EAFBC;" d="M112.88,186.202l4.993,20.584l-21.048,5.105l-4.993-20.584
						c-0.154-0.634,0.243-1.286,0.877-1.439l18.743-4.546C112.087,185.168,112.726,185.568,112.88,186.202z"/>
					
						<rect x="99.576" y="210.228" transform="matrix(0.9718 -0.2357 0.2357 0.9718 -49.2054 32.2802)" style="fill:#72C5CE;" width="21.658" height="23.415"/>
					
						<rect x="96.669" y="209.321" transform="matrix(0.9718 -0.2357 0.2357 0.9718 -46.4638 31.2588)" style="fill:#A9D6D3;" width="21.658" height="1.255"/>
					
						<rect x="105.392" y="234.202" transform="matrix(0.9718 -0.2357 0.2357 0.9718 -54.6946 34.3281)" style="fill:#93DEE2;" width="21.658" height="23.415"/>
					
						<rect x="102.484" y="233.295" transform="matrix(0.9718 -0.2357 0.2357 0.9718 -51.9516 33.3054)" style="fill:#A9D6D3;" width="21.658" height="1.255"/>
					
						<rect x="111.207" y="258.176" transform="matrix(0.9718 -0.2357 0.2357 0.9718 -60.1804 36.3731)" style="fill:#ABEFEF;" width="21.658" height="23.415"/>
					
						<rect x="108.299" y="257.269" transform="matrix(0.9718 -0.2357 0.2357 0.9718 -57.4394 35.3521)" style="fill:#A9D6D3;" width="21.658" height="1.255"/>
					<path style="fill:#CFF9F8;" d="M135.615,279.928l5.443,22.438c0.157,0.646-0.231,1.283-0.865,1.437l-18.743,4.546
						c-0.634,0.154-1.283-0.231-1.439-0.878l-5.443-22.438L135.615,279.928z"/>
					
						<rect x="114.115" y="281.243" transform="matrix(0.9718 -0.2357 0.2357 0.9718 -62.9272 37.3987)" style="fill:#A9D6D3;" width="21.658" height="1.255"/>
					<g>
						
							<rect x="94.159" y="209.321" transform="matrix(0.9718 -0.2357 0.2357 0.9718 -46.4638 31.2588)" style="fill:#FDEFEA;" width="26.677" height="1.255"/>
					</g>
					<g>
						
							<rect x="99.974" y="233.295" transform="matrix(0.9718 -0.2357 0.2357 0.9718 -51.9516 33.3054)" style="fill:#FDEFEA;" width="26.677" height="1.255"/>
					</g>
					<g>
						
							<rect x="105.79" y="257.269" transform="matrix(0.9718 -0.2357 0.2357 0.9718 -57.4394 35.3521)" style="fill:#FDEFEA;" width="26.677" height="1.255"/>
					</g>
					<g>
						
							<rect x="111.605" y="281.243" transform="matrix(0.9718 -0.2357 0.2357 0.9718 -62.9272 37.3987)" style="fill:#FDEFEA;" width="26.677" height="1.255"/>
					</g>
				</g>
				<g>
					<path style="fill:#FDEFEA;" d="M85.386,198.726l58.502,104.237c1.001,1.784,0.367,4.039-1.405,5.034l-16.818,9.439
						c-1.784,1.001-4.039,0.367-5.04-1.416L62.123,211.783c-1.001-1.784-0.367-4.039,1.416-5.04l16.818-9.439
						C82.13,196.309,84.385,196.943,85.386,198.726z"/>
					<path style="fill:#FFCD69;" d="M83.198,199.954l10.367,18.471l-18.887,10.6l-10.367-18.471
						c-0.319-0.569-0.113-1.304,0.456-1.623l16.819-9.439C82.155,199.173,82.878,199.385,83.198,199.954z"/>
					
						<rect x="79.636" y="223.321" transform="matrix(0.872 -0.4894 0.4894 0.872 -103.4533 74.3485)" style="fill:#FFD385;" width="21.658" height="23.414"/>
					
						<rect x="73.599" y="223.645" transform="matrix(0.872 -0.4895 0.4895 0.872 -98.9715 70.0297)" style="fill:#A9D6D3;" width="21.658" height="1.255"/>
					
						<rect x="91.71" y="244.834" transform="matrix(0.872 -0.4894 0.4894 0.872 -112.4369 83.0098)" style="fill:#FFDCA4;" width="21.658" height="23.415"/>
					
						<rect x="85.673" y="245.158" transform="matrix(0.8721 -0.4894 0.4894 0.8721 -107.9379 78.6704)" style="fill:#A9D6D3;" width="21.658" height="1.255"/>
					
						<rect x="103.783" y="266.347" transform="matrix(0.872 -0.4894 0.4894 0.872 -121.4212 91.6721)" style="fill:#FFE8C7;" width="21.658" height="23.414"/>
					
						<rect x="97.747" y="266.67" transform="matrix(0.872 -0.4895 0.4895 0.872 -116.9412 87.3562)" style="fill:#A9D6D3;" width="21.658" height="1.255"/>
					<path style="fill:#FFF3E3;" d="M130.4,284.058l11.3,20.134c0.325,0.58,0.124,1.298-0.445,1.617l-16.818,9.439
						c-0.569,0.319-1.298,0.124-1.623-0.456l-11.3-20.134L130.4,284.058z"/>
					
						<rect x="109.82" y="288.183" transform="matrix(0.8721 -0.4894 0.4894 0.8721 -125.9051 95.9926)" style="fill:#A9D6D3;" width="21.658" height="1.255"/>
					<g>
						
							<rect x="71.089" y="223.645" transform="matrix(0.872 -0.4894 0.4894 0.872 -98.9608 70.017)" style="fill:#FDEFEA;" width="26.677" height="1.255"/>
					</g>
					<g>
						
							<rect x="83.163" y="245.158" transform="matrix(0.872 -0.4895 0.4895 0.872 -107.9563 78.6929)" style="fill:#FDEFEA;" width="26.677" height="1.255"/>
					</g>
					<g>
						
							<rect x="95.237" y="266.67" transform="matrix(0.872 -0.4894 0.4894 0.872 -116.9287 87.3405)" style="fill:#FDEFEA;" width="26.677" height="1.255"/>
					</g>
					<g>
						
							<rect x="107.311" y="288.183" transform="matrix(0.872 -0.4894 0.4894 0.872 -125.9122 96.0017)" style="fill:#FDEFEA;" width="26.677" height="1.255"/>
					</g>
				</g>
			</g>
			<g id="XMLID_10_">
				<g>
					<path style="fill:#BAE9F4;" d="M123.085,382.482c-34.357-22.61-59.604-57.912-69.268-96.854l1.351-0.336
						c9.581,38.608,34.614,73.608,68.682,96.026L123.085,382.482z"/>
				</g>
				<g id="XMLID_11_">
					<g>
						<path style="fill:#BAE9F4;" d="M57.521,295.983c-4.755-5.487-7.438-12.729-7.405-19.99c0.008-1.78,0.276-3.764,1.657-4.887
							c0.38-0.308,0.852-0.538,1.341-0.507c0.786,0.049,1.374,0.729,1.795,1.395c2.234,3.528,2.486,7.942,2.285,12.113
							C56.993,288.277,57.396,291.428,57.521,295.983"/>
					</g>
					<g>
						<path style="fill:#BAE9F4;" d="M62.958,309.714c-2.189-6.923-1.78-14.635,1.13-21.288c0.713-1.631,1.746-3.346,3.459-3.829
							c0.471-0.133,0.996-0.156,1.432,0.066c0.703,0.357,0.972,1.215,1.095,1.993c0.652,4.125-0.867,8.277-2.706,12.026
							C65.529,302.431,64.65,305.483,62.958,309.714"/>
					</g>
					<g>
						<path style="fill:#BAE9F4;" d="M71.455,326.902c-3.019-6.604-3.555-14.308-1.481-21.266c0.508-1.705,1.324-3.534,2.965-4.223
							c0.451-0.189,0.969-0.276,1.429-0.11c0.741,0.268,1.113,1.087,1.33,1.844c1.151,4.014,0.151,8.32-1.215,12.266
							C73.116,319.359,72.616,322.496,71.455,326.902"/>
					</g>
					<g>
						<path style="fill:#BAE9F4;" d="M81.908,342.456c-3.019-6.604-3.556-14.308-1.481-21.266c0.508-1.705,1.324-3.535,2.965-4.223
							c0.451-0.189,0.969-0.276,1.429-0.11c0.741,0.268,1.113,1.087,1.33,1.844c1.151,4.014,0.151,8.32-1.215,12.266
							C83.569,334.914,83.069,338.05,81.908,342.456"/>
					</g>
					<g>
						<path style="fill:#BAE9F4;" d="M98.325,361.121c-3.687-6.255-5.019-13.862-3.676-20.998c0.329-1.749,0.951-3.653,2.512-4.507
							c0.429-0.235,0.935-0.375,1.41-0.257c0.765,0.19,1.219,0.965,1.514,1.696c1.561,3.873,1.012,8.26,0.062,12.326
							C99.196,353.447,99.024,356.618,98.325,361.121"/>
					</g>
					<g>
						<path style="fill:#BAE9F4;" d="M111.556,373.494c-3.711-5.64-5.505-12.952-4.953-20.183c0.135-1.772,0.51-3.74,1.784-4.807
							c0.35-0.293,0.775-0.504,1.195-0.456c0.676,0.077,1.134,0.777,1.45,1.455c1.675,3.596,1.574,8.001,1.099,12.149
							C111.656,365.799,111.777,368.952,111.556,373.494"/>
					</g>
					<g>
						<path style="fill:#BAE9F4;" d="M65.807,315.835c-7.464,0.006-15.058-2.784-20.961-7.702c-1.447-1.205-2.898-2.751-2.946-4.583
							c-0.013-0.504,0.097-1.026,0.428-1.386c0.534-0.58,1.458-0.578,2.266-0.458c4.282,0.637,8.041,3.415,11.318,6.382
							C59.189,311.055,62.012,312.864,65.807,315.835"/>
					</g>
					<g>
						<path style="fill:#BAE9F4;" d="M72.802,328.934c-7.247,1.788-15.287,0.891-22.194-2.476c-1.693-0.825-3.471-1.98-3.955-3.748
							c-0.133-0.486-0.151-1.02,0.085-1.448c0.38-0.69,1.278-0.91,2.091-0.986c4.31-0.403,8.624,1.397,12.514,3.496
							C65.233,325.871,68.407,326.954,72.802,328.934"/>
					</g>
					<g>
						<path style="fill:#BAE9F4;" d="M83.876,344.689c-6.743,3.201-14.8,3.931-22.241,2.014c-1.824-0.47-3.797-1.246-4.625-2.881
							c-0.227-0.449-0.352-0.969-0.206-1.436c0.234-0.752,1.07-1.147,1.852-1.384c4.142-1.258,8.729-0.357,12.96,0.922
							C75.848,343.202,79.174,343.628,83.876,344.689"/>
					</g>
					<g>
						<path style="fill:#BAE9F4;" d="M99.912,363.414c-7.285,1.626-15.303,0.55-22.133-2.969c-1.674-0.863-3.426-2.057-3.87-3.835
							c-0.122-0.489-0.128-1.023,0.117-1.446c0.395-0.682,1.298-0.881,2.113-0.939c4.318-0.308,8.591,1.588,12.433,3.773
							C92.413,360.184,95.562,361.337,99.912,363.414"/>
					</g>
					<g>
						<path style="fill:#BAE9F4;" d="M113.483,374.865c-5.773,4.732-13.417,7.381-21.1,7.313c-1.883-0.017-3.985-0.294-5.182-1.682
							c-0.329-0.381-0.575-0.855-0.546-1.344c0.046-0.787,0.762-1.371,1.464-1.789c3.717-2.219,8.386-2.45,12.801-2.228
							C105.333,375.356,108.664,374.968,113.483,374.865"/>
					</g>
				</g>
			</g>
			<g>
				
					<line style="fill:none;stroke:#3E89CC;stroke-width:3;stroke-linecap:round;stroke-linejoin:round;stroke-miterlimit:10;" x1="377.579" y1="315.094" x2="364.665" y2="393.2"/>
				
					<line style="fill:none;stroke:#3E89CC;stroke-width:3;stroke-linecap:round;stroke-linejoin:round;stroke-miterlimit:10;" x1="409.615" y1="315.094" x2="422.529" y2="393.2"/>
				<rect x="331.724" y="233.625" style="fill:#3E89CC;" width="127.932" height="93.244"/>
				<rect x="336.724" y="237.27" style="fill:#EEFBFF;" width="117.932" height="85.956"/>
				
					<line style="fill:none;stroke:#3E89CC;stroke-width:3;stroke-miterlimit:10;" x1="370.33" y1="358.938" x2="416.864" y2="358.938"/>
				
					<text transform="matrix(0.9999 0.0115 -0.0115 0.9999 379.5386 288.0327)" style="fill:#3E89CC; font-family:'Milkshake'; font-size:21.7607px;">idea</text>
			</g>
			<path style="fill:#81D9FC;" d="M163.619,393.28H90.202L77.87,260.511c-0.157-1.688,0.949-3.164,2.369-3.164h93.342
				c1.421,0,2.526,1.476,2.369,3.164L163.619,393.28z"/>
			<g>
				<path style="fill:#2775AF;" d="M236.195,366.756v26.729H102.424c-2.384,0-4.412-1.471-5.224-3.563
					c-0.254-0.634-0.393-1.331-0.393-2.054v-19.298c0-0.634,0.102-1.243,0.304-1.813H236.195z"/>
				<path style="fill:#FFFFFF;" d="M236.195,366.756v23.166H97.2c-0.254-0.634-0.393-1.331-0.393-2.054v-19.298
					c0-0.634,0.102-1.243,0.304-1.813H236.195z"/>
				<g>
					<rect x="96.806" y="369.431" style="fill:#C3ECFE;" width="153.285" height="1.471"/>
					<rect x="96.806" y="372.741" style="fill:#C3ECFE;" width="153.285" height="1.471"/>
					<rect x="96.806" y="376.05" style="fill:#C3ECFE;" width="153.285" height="1.471"/>
					<rect x="96.806" y="379.359" style="fill:#C3ECFE;" width="153.285" height="1.471"/>
					<rect x="96.806" y="382.669" style="fill:#C3ECFE;" width="153.285" height="1.484"/>
					<rect x="96.806" y="385.978" style="fill:#C3ECFE;" width="153.285" height="1.484"/>
				</g>
				<polygon style="opacity:0.2;fill:#595959;" points="200.611,365.688 194.799,365.688 194.799,382.164 200.611,377.383 
					206.422,382.164 206.422,368.089 				"/>
				<polygon style="fill:#FF8736;" points="201.444,364.355 195.632,366.756 195.632,380.83 201.444,376.05 207.256,380.83 
					207.256,366.756 				"/>
				<path style="fill:#2775AF;" d="M236.195,362.939v3.817H97.111c0.748-2.219,2.84-3.817,5.313-3.817H236.195z"/>
			</g>
			<g>
				<path style="fill:#3E89CC;" d="M245.866,336.425v26.73h-133.77c-2.38,0-4.41-1.47-5.22-3.56c-0.26-0.64-0.4-1.33-0.4-2.06v-19.3
					c0-0.63,0.11-1.24,0.31-1.81H245.866z"/>
				<path style="fill:#FFFFFF;" d="M245.866,336.425v23.17h-138.99c-0.26-0.64-0.4-1.33-0.4-2.06v-19.3c0-0.63,0.11-1.24,0.31-1.81
					H245.866z"/>
				<g>
					<rect x="106.476" y="339.105" style="fill:#C3ECFE;" width="153.29" height="1.47"/>
					<rect x="106.476" y="342.415" style="fill:#C3ECFE;" width="153.29" height="1.47"/>
					<rect x="106.476" y="345.725" style="fill:#C3ECFE;" width="153.29" height="1.47"/>
					<rect x="106.476" y="349.025" style="fill:#C3ECFE;" width="153.29" height="1.48"/>
					<rect x="106.476" y="352.335" style="fill:#C3ECFE;" width="153.29" height="1.49"/>
					<rect x="106.476" y="355.645" style="fill:#C3ECFE;" width="153.29" height="1.49"/>
				</g>
				<polygon style="opacity:0.2;fill:#595959;" points="127.251,335.644 121.44,334.907 121.44,352.119 127.251,347.339 
					133.063,352.119 133.063,338.045 				"/>
				<polygon style="fill:#FFC840;" points="128.535,334.025 122.724,336.426 122.724,350.5 128.535,345.72 134.347,350.5 
					134.347,336.426 				"/>
				<path style="fill:#3E89CC;" d="M245.866,332.605v3.82h-139.08c0.75-2.22,2.84-3.82,5.31-3.82H245.866z"/>
			</g>
			<g>
				<path style="fill:#3E89CC;" d="M443.361,281.097c0.36-0.045,0.643-0.34,0.643-0.713c0-0.403-0.327-0.73-0.73-0.73
					c-0.403,0-0.73,0.327-0.73,0.73c0,0.336,0.231,0.607,0.54,0.692c-0.503,3.742-5.036,6.688-10.584,6.776h-0.505
					c-5.547-0.088-10.08-3.034-10.583-6.776c0.308-0.086,0.539-0.356,0.539-0.692c0-0.403-0.327-0.73-0.73-0.73
					c-0.403,0-0.73,0.327-0.73,0.73c0,0.372,0.283,0.668,0.643,0.713c0.428,3.243,3.743,5.908,8.139,6.755h-7.718
					c-0.07-0.33-0.35-0.582-0.701-0.582c-0.403,0-0.73,0.327-0.73,0.73s0.327,0.73,0.73,0.73c0.35,0,0.63-0.252,0.7-0.581h20.368
					c0.071,0.329,0.35,0.581,0.7,0.581c0.403,0,0.73-0.327,0.73-0.73s-0.327-0.73-0.73-0.73c-0.351,0-0.63,0.253-0.7,0.582h-6.699
					C439.618,287.005,442.933,284.34,443.361,281.097z"/>
				<g>
					<g>
						<path style="fill:#71606E;" d="M438.076,280.08l-5.791,7.922l-0.42-10.98c1.196-0.016,2.163-0.99,2.163-2.19
							c0-1.208-0.982-2.19-2.19-2.19c-1.208,0-2.187,0.982-2.187,2.19c0,1.208,0.978,2.19,2.187,2.19h0.02l-0.099,10.98
							c0,0-3.929-5.545-6.009-8.171c0.915-2.515,1.98-9.51,2.313-11.824c0.071-0.475,0.111-0.753,0.111-0.753s0.135,0,7.66,0
							c0.02,0.23,0.047,0.483,0.079,0.753C436.393,272.078,438.076,280.08,438.076,280.08z"/>
					</g>
				</g>
				<g>
					<path style="opacity:0.2;fill:#71606E;" d="M435.914,268.007h-7.851c0.071-0.475,0.111-0.753,0.111-0.753s0.135,0,7.66,0
						C435.854,267.484,435.882,267.737,435.914,268.007z"/>
					<path style="fill:#FF8736;" d="M437.319,264.495v2.301c0,0.432-0.348,0.78-0.78,0.78h-9.253c-0.412,0-0.749-0.317-0.776-0.725
						c-0.004-0.016-0.004-0.036-0.004-0.055v-2.301c0-0.432,0.349-0.78,0.78-0.78h9.253
						C436.971,263.715,437.319,264.064,437.319,264.495z"/>
					<path style="opacity:0.2;fill:#71606E;" d="M437.319,264.495v2.301c0,0.432-0.348,0.78-0.78,0.78h-9.253
						c-0.412,0-0.749-0.317-0.776-0.725c7.629,0.452,7.439-2.21,7.146-3.137h2.884C436.971,263.715,437.319,264.064,437.319,264.495
						z"/>
				</g>
			</g>
			<path style="fill:#71606E;" d="M304.636,356.065v6.34c0,3.95-3.21,7.16-7.16,7.16h-63.34c-3.94,0-7.14-3.19-7.16-7.13v-6.37
				c0-3.96,3.21-7.16,7.16-7.16h63.34C301.426,348.905,304.636,352.105,304.636,356.065z"/>
			<path style="fill:#71606E;" d="M304.636,380.235v6.33c0,3.96-3.21,7.17-7.16,7.17h-63.34c-3.47,0-6.37-2.48-7.02-5.77
				c-0.09-0.45-0.14-0.92-0.14-1.4v-6.33c0-3.96,3.21-7.17,7.16-7.17h63.34C301.426,373.065,304.636,376.275,304.636,380.235z"/>
			<path style="fill:#FFC840;" d="M360.636,233.735c0,10.06-1.6,19.74-4.55,28.81c-1.44,4.38-3.19,8.63-5.23,12.7
				c-2.95,5.9-6.52,11.45-10.63,16.55c-3,3.76-6.31,7.29-9.87,10.52c-4.63,4.24-9.69,8-15.1,11.22
				c-12.09,7.2-20.18,19.77-21.2,33.81c-0.03,0.51-0.06,1.03-0.08,1.56c-25,0-28.17,0-28.17,0s-3.17,0-28.17,0
				c-0.39-9.7-3.61-17.53-7.41-23.48c-1.09-1.72-2.24-3.28-3.38-4.69c-5.08-6.27-10.03-9.42-10.03-9.42
				c-25.04-16.49-41.62-44.76-41.84-76.93c-0.35-50.76,40.75-92.77,91.51-93.47c3.56-0.05,7.07,0.1,10.53,0.44
				C323.956,145.965,360.636,185.565,360.636,233.735z"/>
			<rect x="233.221" y="369.407" style="fill:#443A43;" width="65.171" height="3.66"/>
			<path style="opacity:0.2;fill:#FFB839;" d="M360.636,233.735c0,33.93-18.2,63.61-45.38,79.8
				c-12.51,7.45-20.434,20.715-21.508,35.2c-18.631,0.283-37.266,0.283-55.896,0.002c-0.518-8.031-3.101-15.919-7.434-22.701
				c25.338-3.236,50.815-10.494,71.201-25.886c39.702-29.977,42.471-83.104,16.466-123.337
				c-9.975-15.433-24.384-27.788-41.07-35.459C323.956,145.965,360.636,185.565,360.636,233.735z"/>
			<path style="opacity:0.2;fill:#71606E;" d="M304.636,356.065v6.34c0,3.95-3.21,7.16-7.16,7.16h-63.34
				c-3.94,0-7.14-3.19-7.16-7.13c48.14,4.86,52.92-9.43,53.32-13.53h17.18C301.426,348.905,304.636,352.105,304.636,356.065z"/>
			<path style="opacity:0.2;fill:#71606E;" d="M304.636,380.235v6.33c0,3.96-3.21,7.17-7.16,7.17h-63.34
				c-3.47,0-6.37-2.48-7.02-5.77c58.47,4.97,48.19-14.9,48.19-14.9h22.17C301.426,373.065,304.636,376.275,304.636,380.235z"/>
			<g style="opacity:0.5;">
				<path style="fill:none;stroke:#FFE1B0;stroke-width:16;stroke-linecap:round;stroke-linejoin:round;stroke-miterlimit:10;" d="
					M205.496,190.781c-8.025,12.493-14.038,31.033-11.922,58.17"/>
				<path style="fill:none;stroke:#FFE1B0;stroke-width:16;stroke-linecap:round;stroke-linejoin:round;stroke-miterlimit:10;" d="
					M234.546,166.771c0,0-6.512,1.939-14.37,7.969"/>
			</g>
			<g>
				<g>
					<path style="fill:#0B0B3A;" d="M155.675,263.641c0.724,0.293,1.276,0.978,1.408,1.748c0.132,0.77-0.159,1.6-0.743,2.118
						c0.673,0.02,1.123,0.792,1.041,1.46c-0.082,0.668-0.532,1.227-0.993,1.717c-0.53,0.563-1.175,1.123-1.948,1.138
						c-0.558,0.011-1.087-0.275-1.498-0.652c-0.294-0.271-0.544-0.595-0.696-0.965c-0.172-0.42-0.213-0.881-0.251-1.334
						c-0.134-1.59-0.268-3.179-0.403-4.768c-0.027-0.324-0.04-0.692,0.188-0.924"/>
				</g>
				<g>
					<path style="fill:#ED9C80;" d="M141.972,274.142c-0.105,2.067,0.042,5.666-0.549,6.199c-0.592,0.533-4.758,0.513-4.758,0.513
						s9.085,8.571,9.695,8.096c0.611-0.475,8.686-7.055,6.871-7.395c-1.815-0.34-3.591-0.267-3.539-1.207
						c0.052-0.939,0.103-1.879,0.155-2.818"/>
				</g>
				<path style="fill:#0094BC;" d="M134.185,320.249c0,0,13.322,1.513,16.389,1.576c3.067,0.063,2.915-1.538,2.915-1.538
					c0.156-3.376,0.728-11.331,1.362-14.027c0.592-2.517,0.855-3.447,1.371-5.839c1.146-5.316,1.095-6.331,2.309-12.893
					l-7.957-6.396c0,0-0.823,2.448-4.159,2.49c-4.458,0.057-5.845-3.066-5.845-3.066l-10.853,7.206l-1.018,17.529l4.079,13.422"/>
				<g>
					<path style="fill:#ED9C80;" d="M141.822,272.27c0.241,1.041,0.555,2.065,0.939,3.063c0.703,1.828,1.741,2.485,3.676,2.531
						c1.36,0.033,2.719,0.065,4.079,0.097c1.044,0.025,2.344,0.06,3.186-0.672c0.836-0.726,0.854-1.949,1.039-2.954
						c0.237-1.287,0.43-2.582,0.579-3.882c0.291-2.546,0.411-5.112,0.359-7.674c-0.007-0.352-0.018-0.706-0.091-1.05
						c-0.03-0.14-0.074-0.284-0.175-0.385c-0.126-0.126-0.314-0.161-0.49-0.189c-2.548-0.402-5.133-0.568-7.711-0.494
						c-1.821,0.052-3.751,0.265-5.193,1.379c-1.451,1.122-2.139,2.944-2.759,4.67c-0.1,0.277-0.174,0.647,0.067,0.817"/>
				</g>
				<g>
					<g>
						<path style="fill:#ED9C80;" d="M170.968,365.137c0,0-0.427,2.56-0.768,3.435c-0.34,0.875-3.213,0.068-3.402-0.497
							c-0.19-0.566,0.904-4.729,0.904-4.729"/>
						<path style="fill:#3A3A3A;" d="M165.798,368.798c-0.249,0.944-0.562,2.755-0.562,2.755l2.87,1.25l0.471-0.443
							c0,0,0.712,0.863,1.592,1.27c0.654,0.302,2.063,0.693,2.779,0.771c2.506,0.27,4.35-0.201,4.499-0.549
							c0.622-1.452-2.703-1.841-3.363-2.014c-1.895-0.499-2.948-2.107-3.15-3.156c-0.146-0.761,0.042-0.895-0.383-0.871
							c0,0-0.372-0.019-0.718,0.337c-0.53,0.547-1.329,0.797-2.039,0.474c-0.406-0.184-0.792-0.454-1.018-0.847
							C166.777,367.775,166.047,367.854,165.798,368.798z"/>
					</g>
					<g>
						<g>
							<path style="fill:#243A6C;" d="M158.281,331.672c4.488,0.882,9.92,1.536,14.455,0.938c-0.634,1.817-1.988,3.557-2.58,6.117
								c-1.956,8.453-2.635,19.807-3.131,26.832c0,0,0.939,1.803,3.947,0.43c4.495-11.101,12.343-33.6,12.27-38.481
								c-0.092-6.214-15.602-7.714-26.968-9.245"/>
						</g>
						<g style="opacity:0.5;">
							<path style="fill:#40536D;" d="M138.469,319.231c-3.574,2.61,19.812,12.441,19.812,12.441c2.594,0.51,5.12,0.738,7.665,0.732
								c0.241-0.464,0.466-0.939,0.57-1.451c0.138-0.679,0.064-1.385,0.183-2.068c0.231-1.328,1.184-2.45,2.336-3.149
								c1.152-0.699,2.491-1.024,3.822-1.238c3.162-0.51,8.683-0.152,8.683-0.152c-7.028-5.181-20.699-4.013-27.397-4.439
								C152.859,322.021,138.981,318.857,138.469,319.231z"/>
						</g>
					</g>
					<g style="opacity:0.2;">
						<path style="fill:#595959;" d="M168.976,367.505c-0.1,0.54-0.24,1.22-0.38,1.77c0.07-0.01,0.13-0.01,0.13-0.01
							c0.43-0.02,0.24,0.11,0.38,0.87c0.21,1.05,1.26,2.66,3.15,3.16c0.66,0.17,3.99,0.56,3.37,2.01c-0.15,0.35-2,0.82-4.5,0.55
							c-0.72-0.08-2.13-0.47-2.78-0.77c-0.88-0.41-1.59-1.27-1.59-1.27l-0.48,0.44l-2.87-1.25c0,0,0.32-1.81,0.57-2.75
							c0.24-0.95,0.98-1.03,0.98-1.03c0.02-0.45,0.17-1.26,0.35-2.06c-0.07-0.09-0.11-0.16-0.11-0.16
							c0.5-7.02,1.18-18.37,3.13-26.83c0.34-1.46,0.93-2.66,1.49-3.75c0.42-0.82,0.82-1.58,1.09-2.36
							c-2.09,0.27-4.38,0.27-6.68,0.12c-0.02,0.71-0.05,1.46-0.08,2.24c-0.45,9.97-2.11,24.92-1.87,36.76c0,0-0.19,0.16-0.55,0.32
							c-0.01,0.54-0.03,1.19-0.07,1.74c0.07-0.03,0.13-0.04,0.13-0.04c0.41-0.1,0.25,0.07,0.53,0.79c0.38,1,1.69,2.4,3.65,2.56
							c0.68,0.06,4.02-0.13,3.66,1.4c-0.09,0.37-1.82,1.15-4.34,1.32c-0.72,0.05-2.17-0.09-2.87-0.27
							c-0.94-0.25-1.79-0.98-1.79-0.98l-0.39,0.52l-3.04-0.74c0,0,0-1.83,0.08-2.81c0.08-0.97,0.78-1.17,0.78-1.17h0.01
							c-0.06-0.47-0.05-1.36-0.01-2.23c-0.28-0.09-0.56-0.19-0.86-0.32c-0.75-8.14-5.26-26.52-3.05-36.85
							c0.17-0.81,0.38-1.56,0.64-2.26c-8.44,1.12-15.71,2.17-23.38-0.37c-0.82-0.27-1.36-0.66-1.82-1.19h51.28
							c-0.24,1.12-0.57,2.41-0.97,3.82c-2.49,8.97-7.49,22.98-10.75,31.01C169.086,367.465,169.036,367.485,168.976,367.505z"/>
					</g>
					<g>
						<path style="fill:#ED9C80;" d="M163.555,371.045c0,0,0.023,2.595-0.16,3.516c-0.184,0.921-3.152,0.624-3.437,0.1
							c-0.285-0.524,0.07-4.814,0.07-4.814"/>
						<path style="fill:#3A3A3A;" d="M159.098,375.547c-0.081,0.973-0.076,2.811-0.076,2.811l3.044,0.734l0.387-0.517
							c0,0,0.85,0.727,1.788,0.975c0.696,0.184,2.152,0.325,2.87,0.277c2.514-0.168,4.249-0.952,4.335-1.32
							c0.361-1.537-2.981-1.344-3.661-1.401c-1.953-0.163-3.268-1.564-3.649-2.562c-0.276-0.724-0.114-0.888-0.529-0.791
							c0,0-0.37,0.046-0.649,0.456c-0.428,0.631-1.171,1.015-1.926,0.82c-0.432-0.111-0.858-0.31-1.149-0.658
							C159.885,374.37,159.179,374.574,159.098,375.547z"/>
					</g>
					<g>
						<path style="fill:#243A6C;" d="M130.669,318.714c-1.196,2.784-1.982,7.816-0.782,9.971c1.053,1.89,1.552,3.059,3.347,3.654
							c7.669,2.542,14.937,1.495,23.374,0.374c-3.574,9.657,1.607,30.342,2.414,39.111c3.245,1.44,5.08-0.092,5.08-0.092
							c-0.368-17.85,3.61-42.782,1.202-47.047c-1.464-2.593-18.934-6.016-19.281-5.97"/>
					</g>
				</g>
				<g>
					<path style="fill:#0B0B3A;" d="M144.059,269.14c-0.148-0.613-1.101-0.659-1.534-0.2c-0.433,0.459-0.481,1.149-0.505,1.78
						c-0.03,0.782,0.356,1.577,0.769,2.242c0.413,0.665,1.027,1.048,1.591,0.505c0.047,1.145-0.873,2.068-1.671,2.117
						c-0.798,0.05-1.595-0.501-1.83-1.266c-3.455,1.269-4.546-3.732-4.757-6.232c-0.165-1.959,0.486-4.341,1.556-5.991
						c0.582-0.898,1.459-1.643,2.501-1.887c0.107-1.27,1.035-2.354,2.14-2.987c1.106-0.634,2.102-0.92,3.351-1.171
						c0.771-0.155,2.869,0.409,3.263,1.196c1.467-0.844,2.773-0.031,3.938,0.106c1.165,0.137,2.462,1.216,1.964,2.278
						c1.827-0.555,3.812,1.527,3.264,3.357c-0.548,1.83-3.195,2.542-4.659,1.314c-0.535,1.196-1.9,1.871-3.21,1.878
						c-1.31,0.007-2.563-0.552-3.663-1.264c0.369,0.677,0.485,1.603,0.129,2.39c-0.356,0.787-0.651,1.371-1.816,1.131
						c0,0,0.103,1.816-0.309,1.645C144.16,269.911,144.059,269.14,144.059,269.14z"/>
				</g>
				<g>
					<path style="fill:#0094BC;" d="M167.41,314.19c-4.653-6.706-7.138-11.99-11.188-19.076l-5.648-13.981
						c0,0,1.903,0.105,2.274,0.135c1.587,0.126,3.203,0.335,4.704,0.89c2.159,0.799,4.387,2.268,5.438,4.376
						c0.937,1.881,1.509,3.924,2.303,5.866c0.886,2.169,1.826,4.316,2.773,6.46c1.879,4.255,3.805,8.498,5.388,12.874"/>
				</g>
				<polygon style="opacity:0.2;fill:#070707;" points="157.004,296.493 157.762,291.956 163.331,304.16 161.487,304.609 				"/>
				<g>
					<g>
						<path d="M129.67,287.529c-0.761,10.927-0.721,22.605,1.738,33.337c0.069,0.301,0.582,0.243,0.549-0.074
							c-0.573-5.538-1.434-11.013-1.734-16.582c-0.299-5.555-0.27-11.127,0.016-16.681
							C130.258,287.161,129.695,287.166,129.67,287.529L129.67,287.529z"/>
					</g>
				</g>
				<g>
					<rect x="137.226" y="319.949" style="fill:#AABDE2;" width="43.037" height="1.547"/>
					<path style="fill:#AABDE2;" d="M187.94,321.496h-34.451l6.177-20.138c0.341-1.112,1.368-1.871,2.531-1.871h30.17
						c1.155,0,1.98,1.117,1.642,2.221L187.94,321.496z"/>
					<path style="fill:#E1E8F9;" d="M188.372,321.496H154.44l6.177-20.138c0.341-1.112,1.368-1.871,2.531-1.871h30.17
						c1.155,0,1.981,1.117,1.642,2.221L189.043,321C188.953,321.295,188.681,321.496,188.372,321.496z"/>
				</g>
				<g style="opacity:0.2;">
					<path style="fill:#070707;" d="M134.713,291.173c1.774,8.023,2.513,17.281,3.014,23.017c6.655,0.491,8.521,3.045,14.617,5.759
						c0,0,4.814-0.8,5.32,1.016c0.292,1.047-5.636,1.881-5.636,1.881c-5.65,0.026-19.341-2.62-20.35-2.897
						c-1.009-0.277-5.153-20.7-5.27-30.979c-0.017-1.46,0.035-3.044,0.948-4.183c0.48-0.599,1.155-1.01,1.839-1.359
						c3.976-2.033,6.92-2.588,11.376-2.871"/>
				</g>
				<g>
					<path style="fill:#ED9C80;" d="M151.503,321.192c0.67-0.843,1.89-0.965,2.967-0.939c0.797,0.02,1.592,0.083,2.382,0.19
						c0.36,0.049,0.774,0.133,0.812,0.523c0.038,0.39-1.746-0.001-2.682,0.27c1.833,0.157,3.675,0.207,5.513,0.15
						c0.214-0.007,0.435-0.014,0.634,0.065c0.199,0.079,0.371,0.269,0.357,0.483c-0.01,0.167-0.128,0.307-0.252,0.419
						c-0.514,0.462-1.216,0.645-1.896,0.764c-2.811,0.492-5.766,0.407-8.38-0.74"/>
				</g>
				<g>
					<path style="fill:#0094BC;" d="M134.891,291.178c0.147,8.577,1.372,16.363,1.205,24.939c6.655,0.491,10.037,1.784,16.132,4.497
						c0,0,0.363,1.21-0.201,2.231c-0.465,0.17-19.906-0.651-21.505-2.124c-1.438-1.325-3.998-21.473-4.116-31.753
						c-0.017-1.46,0.035-3.044,0.948-4.183c0.48-0.599,1.155-1.01,1.839-1.359c3.976-2.033,6.92-2.588,11.376-2.871"/>
				</g>
				<path style="fill:#ED9C80;" d="M154.485,268.729c0,0,2.051,3.602,1.738,4.063c-0.314,0.462-2.726,0-2.726,0"/>
				<path style="fill:#FFFFFF;" d="M172.736,309.97c0,1.985,1.609,3.594,3.594,3.594c1.985,0,3.594-1.609,3.594-3.594
					c0-1.985-1.609-3.594-3.594-3.594C174.345,306.376,172.736,307.985,172.736,309.97z"/>
			</g>
			<g>
				<path style="opacity:0.2;" d="M350.856,275.245c2.04-4.07,3.79-8.32,5.23-12.7c-0.57-0.07-1.04-0.17-1.28-0.31
					c-5.44-3.15-4.94,2.45-4.17,4.56c0.26,0.72,0.85,1.63,0.97,1.96c0.12,0.32-0.13,1.76-0.13,2.41c0.01,0.65,0.57,0.99,0.58,1
					c-0.34,1.04-0.68,1.99-0.91,2.32C350.976,274.735,350.876,274.995,350.856,275.245z M352.676,270.095
					c0.01-0.02,0.02-0.06,0.03-0.1c-0.01,0.05-0.03,0.1-0.04,0.15C352.666,270.125,352.676,270.105,352.676,270.095z
					 M338.866,292.135c-2.14,0.53-2.87,0-2.87,0v0.01c-1.21-0.58-2.69-1.07-4.2-1.6c-1.12-0.39-2.56-0.97-4.08-1.61l-22.06-22.27
					l-1.82-1.83c0.01,0,0.01,0,0.01,0s0.08-0.66,0.01-1.62c-0.14-2.01-0.95-5.34-4.53-6.44c-3.64-1.11-6.26,0.29-8.82-0.68
					l-3.41-3.05c-0.04-0.07-0.08-0.13-0.13-0.2c0,0,0.01,0.04,0.02,0.1c1.24,5.74,1.02,17.94,11.62,17.32l1.69,1.71l10.97,11.07
					c1.16,2.18,4.31,4.43,4.57,4.61l14.52,14.66c3.56-3.23,6.87-6.76,9.87-10.52c-0.41,0.1-0.83,0.21-1.24,0.32
					C338.946,292.125,338.916,292.125,338.866,292.135z"/>
				<g>
					<g id="XMLID_217_">
						<path id="XMLID_218_" style="fill:#AFE1F2;" d="M333.641,419.268c0,1.259,14.127,2.28,31.555,2.28
							c17.426,0,31.552-1.021,31.552-2.28c0-1.259-14.127-2.28-31.552-2.28C347.768,416.988,333.641,418.009,333.641,419.268z"/>
					</g>
					<g id="XMLID_269_">
						<path id="XMLID_274_" style="fill:#35AAD3;" d="M359.833,288.841c-0.132,0.64-0.467,1.188-0.924,1.594
							c-0.498,0.467-1.168,0.772-1.879,0.853c-1.858,0.193-4.732,0.589-7.768,0.995c-4.874,0.65-10.185,1.32-12.419,1.198
							c-0.508-0.02-2.559,0.041-3.95-0.548c-0.041-0.01-0.081-0.02-0.122-0.041c-0.01-0.01-0.01-0.01-0.02-0.02
							c-0.335-0.295-0.345-1.077-0.244-1.858c0.091-0.853,0.315-1.716,0.335-1.94c0.223-2.315,2.143-3.087,3.077-3.321
							c0.305-0.081,0.508-0.102,0.508-0.102c0.112-0.031,0.224-0.071,0.345-0.112c4.57-1.452,9.738-1.808,13.069-2.366
							c1.604-0.274,3.27-0.193,4.813,0.244c1.056,0.294,2.061,0.762,2.975,1.391C359.061,285.805,360.188,287.155,359.833,288.841z"
							/>
						<path id="XMLID_272_" style="fill:#35AAD3;" d="M337.442,291.024c-0.122,0.335-0.284,0.619-0.467,0.863
							c-0.091,0.112-0.183,0.213-0.274,0.305c-1.188,1.147-3.036,0.934-3.382,0.884h-0.01c-0.132-0.041-0.264-0.091-0.416-0.142
							c-0.041-0.02-0.091-0.041-0.142-0.061c-2.924-1.239-9.119-5.778-13.353-9.017c-0.03-0.01-0.041-0.02-0.041-0.02
							c-2.528-1.95-4.356-3.412-4.356-3.412l0.376-0.579l1.503-2.204c0,0,9.413,4.448,13.861,6.001c1.95,0.68,3.859,1.3,5.179,2.112
							c0.173,0.102,0.325,0.203,0.477,0.315C336.396,286.069,338.396,288.353,337.442,291.024z"/>
						<path id="XMLID_271_" style="fill:#2496B5;" d="M349.262,292.283c-4.874,0.65-10.185,1.32-12.419,1.198
							c-0.508-0.02-2.559,0.041-3.95-0.548c-0.041-0.01-0.081-0.02-0.122-0.041c-0.01-0.01-0.01-0.01-0.02-0.02
							c-2.924-1.239-9.119-5.778-13.353-9.017c0.609,0.366,8.631,5.026,13.11,7.159c1.127,0.538,2.031,0.914,2.528,1.026
							c0.437,0.091,1.005,0.142,1.665,0.152c0.083,0.001,0.167,0.001,0.252,0.001c4.13-0.017,7.896-2.257,10.09-5.756
							c1.077-1.719,1.976-2.713,1.976-2.713S349.171,288.729,349.262,292.283z"/>
					</g>
					<path id="XMLID_268_" style="fill:#35AAD3;" d="M334.941,285.232c0,0,0.729,0.526,2.87,0c2.141-0.526-0.112,2.093-0.112,2.093
						l-3.371-0.212l-0.286-0.87L334.941,285.232z"/>
					<g id="XMLID_219_">
						<path id="XMLID_257_" style="fill:#35AAD3;" d="M369.027,309.779c-0.903,2.345-1.12,4.903-0.572,7.361
							c1.084,4.879-0.15,5.206-0.15,5.206s-6.613,4.197-12.112,5.913c-3.941,1.226-7.301,1.019-7.207-3.333l0.003-0.06
							c0.007-0.264,0.013-0.517,0.02-0.763c0.186-9.781-1.854-10.278-2.356-21.23c-0.519-11.236-0.408-17.888,3.191-19.701
							c3.92-1.974,9.314-3.332,16.963-1.524c5.746,1.354,7.639,2.879,7.592,7.131c-0.015,1.413-0.244,3.129-0.618,5.235
							C372.83,299.363,370.565,305.787,369.027,309.779z"/>
						<path id="XMLID_254_" style="fill:#2496B5;" d="M369.027,309.779c-0.903,2.345-1.12,4.903-0.572,7.361
							c1.084,4.879-0.15,5.206-0.15,5.206s-6.613,4.197-12.112,5.913l-5.139-0.487l-2.057-1.616l-0.008-1.289
							c0.007-0.264,0.013-0.517,0.02-0.763c1.174,0.112,3.845,0.249,7.76-0.202c3.025-0.345,5.776-1.208,7.609-1.906
							c1.336-0.506,2.12-1.887,1.871-3.296c-0.333-1.924-0.727-4.681-0.712-6.822c0.016-2.154,1.013-5.793,1.828-8.418
							c0.623-2.015,0.835-4.123,0.685-6.224c-0.255-3.635,0.006-7.094,0.006-7.094l4.074-2.207l2.269,0.846
							c-0.015,1.413-0.244,3.129-0.618,5.235C372.83,299.363,370.565,305.787,369.027,309.779z"/>
						<g id="XMLID_134_">
							<g id="XMLID_135_">
								<path id="XMLID_188_" style="fill:#ED9C80;" d="M350.626,269.749c0.752,0.303,0.438,2.851,0.584,3.67
									c0.135,0.831,0.73,4.018,2.413,4.501c1.673,0.483,2.716,0.617,2.716,0.898c0.011,0.123-0.034,0.707-0.079,1.291
									c-0.022,0.247-0.045,0.494-0.056,0.696c0,0.056-0.011,0.112-0.011,0.157c-0.011,0.045-0.011,0.09-0.011,0.135
									c-0.022,0.202,0.023,1.033,0.146,1.19l1.1,0.729c0.146,0.168,0.348,0.281,0.572,0.292l1.156,0.09
									c0.09,0,0.168,0,0.247-0.023l0.651-0.191c0.09-0.393,0.157-0.696,0.168-0.707c0.022-0.034,2.054-1.358,3.233-2.133
									c0.067-1.212,0.168-2.615,0.258-2.974c0.078-0.303,0.943-1.975,1.841-3.962c0.079-0.168,0.157-0.337,0.225-0.505
									c0.202-0.449,0.393-0.909,0.584-1.369c0.034-0.056,0.056-0.123,0.079-0.18c0.64-1.628,1.145-3.233,1.156-4.31
									c0-2.941-0.101-6.016-1.919-7.532c-1.796-1.504-13.211-6.914-13.593,1.953c-0.011,0.056-0.011,0.101-0.022,0.157
									c-0.168,0.606-1.403,5.129-1.975,5.96C349.481,268.469,349.874,269.457,350.626,269.749z"/>
								<path id="XMLID_136_" style="fill:#F29D77;" d="M356.328,282.286l0.112,0.55c0.079,0.393,0.427,0.662,0.819,0.651
									l1.953-0.078c0.056,0,0.123-0.011,0.191-0.034l0.651-0.191c0.09-0.393,0.157-0.696,0.168-0.707
									c0.022-0.034,2.054-1.358,3.233-2.133c0.067-1.212,0.168-2.615,0.258-2.974c0.078-0.303,0.943-1.975,1.841-3.962
									c0.079-0.168,0.157-0.337,0.225-0.505c0.202-0.449,0.393-0.909,0.584-1.369c0.045-0.123,0.067-0.247,0.056-0.382
									l-0.079-0.875c-0.034-0.382-0.325-0.696-0.707-0.73c-0.965-0.112-2.694-0.303-2.784-0.292
									c-0.123,0.011-1.178,2.032-1.178,2.144c0,0.09,0.483,1.571,0.617,1.975c0.023,0.067,0.034,0.123,0.045,0.202
									c0.011,0.449,0.079,2.29,0.022,3.985c-0.034,1.224-0.707,2.312-1.74,2.874c0,0-0.056,0.034-0.146,0.079
									C359.943,280.782,358.124,281.714,356.328,282.286z"/>
								<path id="XMLID_137_" style="fill:#0B0B3A;" d="M350.143,270.557c-2.447,2.222,0.202,7.038,0.988,7.722
									c0.786,0.685,6.398,2.391,9.62-0.707c0.617-0.573,1.055-1.257,1.381-1.964c0,0,0-0.011,0.011-0.023
									c0.09-0.202,0.808-1.942,0.752-4.411l0.92,0.225c0,0,0.168,2.862-0.157,4.636c0.011,0.696,0.853,1.055,1.347,0.573
									c1.459-1.426,3.67-4.557,4.422-10.843c1.156-9.664-8.531-10.326-10.708-10.102c-1.56,0.168-4.254,0.079-4.973-0.337
									c-5.444-3.143-4.939,2.458-4.164,4.568c0.258,0.718,0.842,1.628,0.965,1.953c0.124,0.326-0.135,1.762-0.135,2.413
									c0.011,0.651,0.584,0.999,0.584,0.999s0.55-1.807,0.617-2.065c0.056-0.191,0.281-0.999,0.382-1.358
									c0.034-0.112,0.123-0.202,0.224-0.247c0.337-0.124,0.673-0.191,0.673-0.191c0.359-0.101,1.762-0.18,2.862-0.236
									c0.719-0.034,1.358,0.516,1.381,1.246c0.135,3.019,1.684,3.569,2.391,3.659c0.202,0.022,0.359,0.179,0.382,0.382
									c0.471,3.682-0.943,5.747-1.549,5.848c-0.629,0.112-2.548-1.538-2.548-1.538S352.579,268.334,350.143,270.557z"/>
							</g>
							<path id="XMLID_138_" style="fill:#F29D77;" d="M362.602,268.712c0,0,0.149-1.652,1.416-1.422
								c1.505,0.273,2.246,3.781-0.067,4.633c-0.506,0.186-1.046-0.206-1.056-0.745C362.88,270.495,362.817,269.544,362.602,268.712
								z"/>
						</g>
						<path id="XMLID_16_" style="fill:#16405A;" d="M355.15,285.716c0,0-5.96,19.538-4.768,28.898l2.196,3.995l2.401-4.357
							c0,0-1.952-18.712,1.785-28.206L355.15,285.716z"/>
						<path id="XMLID_15_" style="fill:#103649;" d="M354.737,284.053l0.031,0.256c0.059,0.485,0.188,0.958,0.382,1.407l0,0
							l1.613,0.33l1.406-1.047l-1.612-1.874l-0.25,0.064c-0.578,0.147-1.109,0.437-1.546,0.843L354.737,284.053z"/>
						<path id="XMLID_223_" style="fill:#2496B5;" d="M363.502,279.573c0,0,0.403,0.483,1.174,1.641c0,0-1.123,0.421-2.044,0.984
							c-0.841,0.514-4.885,3.37-4.885,3.37l-1.189-2.442C356.557,283.125,361.216,280.213,363.502,279.573z"/>
						<path id="XMLID_220_" style="fill:#2496B5;" d="M356.557,283.125c0,0-1.415,0.484-1.85,1.541c0,0-0.684-2.096-0.108-3.248
							c0,0,0.414-1.089,1.682-1.603L356.557,283.125z"/>
					</g>
					<g id="XMLID_214_">
						<path id="XMLID_216_" style="fill:#FEAF84;" d="M350.259,412.725c0,0-0.56,1.435-0.49,2.379
							c0.07,0.945,3.079,1.015,3.429,0.525c0.35-0.49,0.525-4.829,0.525-4.829"/>
						<path id="XMLID_215_" style="fill:#3A3A3A;" d="M353.994,416.463c0,0.985-0.274,2.589-0.274,2.589h-3.468l-0.171-0.579
							c0,0-1.124,0.579-2.008,0.579h-2.927c-2.143,0-3.359-0.273-3.413-0.65c-0.226-1.576,2.333-1.504,3-1.504
							c1.914,0,3.986-0.896,4.437-1.867c0.328-0.705,0.183-0.883,0.579-0.751c0,0,0.356,0.077,0.594,0.513
							c0.365,0.67,1.057,1.119,1.808,0.986c0.43-0.076,0.861-0.24,1.172-0.565C353.324,415.214,353.994,415.478,353.994,416.463z"/>
					</g>
					<g id="XMLID_211_">
						<path id="XMLID_213_" style="fill:#FEAF84;" d="M383.997,409.455c0,0,0.642,2.539,1.057,3.39
							c0.415,0.852,3.236-0.198,3.38-0.783c0.144-0.585-1.301-4.68-1.301-4.68"/>
						<path id="XMLID_212_" style="fill:#3A3A3A;" d="M389.48,412.542c0.365,0.915,0.905,2.688,0.905,2.688l-2.628,1.568
							l-0.516-0.389c0,0-0.58,0.941-1.383,1.445c-0.596,0.374-1.916,0.922-2.602,1.078c-2.401,0.548-4.256,0.283-4.446-0.047
							c-0.794-1.38,2.389-2.138,3.008-2.385c1.778-0.709,2.592-2.431,2.652-3.501c0.043-0.776-0.157-0.888,0.259-0.912
							c0,0,0.36-0.061,0.742,0.257c0.587,0.487,1.396,0.647,2.045,0.246c0.371-0.229,0.711-0.541,0.879-0.959
							C388.395,411.63,389.115,411.627,389.48,412.542z"/>
					</g>
					<g id="XMLID_184_">
						<path id="XMLID_208_" style="fill:#243A6C;" d="M371.812,341.821c0,0,4.712-11.283-3.507-19.475c0,0-7.013,3.139-12.629,3.518
							c-4.422,0.298-6.668-0.16-6.668-0.16s-1.716,8.865-1.17,21.74L371.812,341.821z"/>
						<path id="XMLID_205_" style="fill:#243A6C;" d="M354.136,413.814c-0.142,0.01-0.284,0.01-0.416,0.01
							c-2.924,0.03-4.59-0.315-4.59-0.315v-0.843c0.163-12.917-1.401-34.028-1.706-40.7c-0.02-0.467-0.01-0.893,0.04-1.279
							c0.508-4.884,5.555-4.245,7.677,0.244c0.498,1.046,0.894,2.204,1.198,3.453c0.376,1.503,0.63,3.138,0.782,4.874
							C358.107,390.407,354.999,405.487,354.136,413.814z"/>
						<path id="XMLID_202_" style="fill:#243A6C;" d="M362.889,347.027c-0.02,0.132-0.051,0.274-0.081,0.417
							c-1.117,5.88-4.742,21.771-6.468,26.93v0.01c-0.254,0.721-1.117,1.33-2.224,1.625c-2.539,0.691-6.326-0.254-6.651-5.321
							c-0.04-0.559-0.03-1.168,0.02-1.828c0.215-2.641,0.401-13.918,0.354-21.415c-0.026-4.255,1.002-6.832,1.068-7.617
							c0.173-2.193,0.569-5.392,1.726-5.798C356.411,332.029,364.402,338.802,362.889,347.027z"/>
						<path id="XMLID_199_" style="fill:#1C3059;" d="M357.122,379.258c0.985,11.15-2.122,26.229-2.986,34.556
							c-0.142,0.01-0.284,0.01-0.416,0.01c0,0,0.721-13.191,1.899-22.33c0.914-7.057-0.711-13.099-1.503-15.486
							c-0.234-0.711-0.396-1.097-0.396-1.097l1.422-3.981c1.584-5.179,1.625-17.263,1.625-17.263
							c-3.859-8.51-4.397-19.223-4.397-19.223l3.3,0.457l5.91,7.088l1.229,5.453c-1.117,5.88-4.742,21.771-6.468,26.93v0.01
							C356.715,375.886,356.969,377.521,357.122,379.258z"/>
						<path id="XMLID_196_" style="fill:#1C3059;" d="M357.497,370.421c0,0-0.991,4.47-0.375,8.837
							c0.616,4.366-2.092-3.842-2.092-3.842l1.439-2.962L357.497,370.421z"/>
						<path id="XMLID_193_" style="fill:#243A6C;" d="M374.4,370.601c-3.912-3.68-9.353-1.938-6.811,3.773
							c2.718,6.106,11.122,23.058,15.678,35.141l0.314,0.786c0,0,1.831-0.316,4.769-1.545c-2.168-7.844-3.745-21.362-8.251-30.781
							C378.65,374.947,376.428,372.509,374.4,370.601z"/>
						<g id="XMLID_186_">
							<g>
								<g id="XMLID_61_">
									<path id="XMLID_63_" style="fill:#243A6C;" d="M352.365,334.448c-0.76-9.084,10.563-3.051,15.993-0.051
										c2.286,1.262,3.122,3.788,3.429,6.166c0.308,2.378,3.242,26.858,3.831,31.324c1.329,10.069-7.466,4.563-8.297,1.773
										C365.224,366.616,352.779,339.398,352.365,334.448z"/>
								</g>
							</g>
						</g>
						<path id="XMLID_185_" style="fill:#243A6C;" d="M374.84,365.646c0,0,0.359,4.818,4.406,10.759c0,0-6.623-3.058-6.944-3.508
							c-0.321-0.45-1.478-5.116-1.35-5.611C371.08,366.792,374.84,365.646,374.84,365.646z"/>
					</g>
					<path id="XMLID_175_" style="fill:#2496B5;" d="M363.814,325.927l0.011,0.011l0.516,0.449c0,0,4.007-3.48,7.128-6.42
						c2.885-2.739,5.826-5.792,7.655-9.451c0.09-0.168,0.18-0.359,0.258-0.528c0-0.011,0-0.011,0-0.022
						c0.022-0.067,0.056-0.18,0.079-0.326c0.011-0.056,0.034-0.112,0.034-0.18c0.022-0.056,0.022-0.123,0.034-0.191
						c0.022-0.18,0.034-0.359,0.045-0.539c0.011-0.09,0.011-0.18,0.011-0.269c0.023-1.145-0.18-2.267-0.213-2.627
						c-0.337-3.614-3.906-14.928-5.118-19.643c-0.18-0.696-0.572-1.313-1.111-1.74c-0.472-0.393-1.055-0.64-1.695-0.674
						c-0.011,0-0.011,0-0.022-0.011c-0.09,0-0.18-0.011-0.269,0c0.752,1.212,1.818,3.659,3.019,8.564
						c1.594,6.544,2.716,10.495,3.165,13.032c0.225,1.167,0.292,2.043,0.202,2.728c-0.056,0.426-0.471,1.268-1.145,2.379
						C373.647,315.028,366.665,323.974,363.814,325.927z"/>
					<g>
						<g>
							<path style="fill:#FFFFFF;" d="M297.561,263.358c4.13-2.85,5.224-5.43,5.224-5.43s0.079-0.659,0.01-1.614
								c-0.143-2.015-0.944-5.349-4.53-6.448c-5.29-1.612-8.438,2.085-12.357-3.922c0,0,0.009,0.033,0.023,0.095
								C287.165,251.781,286.943,263.992,297.561,263.358z"/>
							<path style="fill:#FFE7C5;" d="M297.561,263.358c4.13-2.85,5.224-5.43,5.224-5.43s0.079-0.659,0.01-1.614
								c-11.314,11.921-16.493-8.709-16.864-10.275C287.165,251.781,286.943,263.992,297.561,263.358z"/>
							<g>
								<path style="fill:#FFE7C5;" d="M285.931,246.039c0.811,1.74,2.093,3.21,3.622,4.306c0.766,0.542,1.598,1.01,2.483,1.257
									c0.886,0.266,1.826,0.341,2.778,0.409c0.955,0.064,1.927,0.144,2.894,0.449c0.948,0.332,1.824,0.888,2.469,1.656
									c0.652,0.76,1.073,1.7,1.227,2.672c0.145,0.973,0.039,1.967-0.282,2.871c0.396-1.866-0.005-3.901-1.304-5.222
									c-0.615-0.677-1.416-1.174-2.278-1.454c-0.869-0.255-1.825-0.31-2.772-0.409c-0.951-0.089-1.934-0.186-2.88-0.492
									c-0.948-0.32-1.79-0.841-2.557-1.436C287.789,249.458,286.578,247.846,285.931,246.039z"/>
							</g>
							<g>
								<path style="fill:#FFE7C5;" d="M285.931,246.039c0.549,1.706,1.354,3.318,2.371,4.762c1.036,1.426,2.293,2.702,3.821,3.556
									c0.76,0.446,1.563,0.717,2.421,1.064c0.839,0.349,1.662,0.761,2.419,1.287c0.748,0.535,1.411,1.214,1.874,2.015
									c0.456,0.806,0.663,1.727,0.661,2.623c-0.23-1.802-1.313-3.335-2.816-4.227c-0.727-0.481-1.525-0.86-2.347-1.18
									c-0.811-0.297-1.72-0.602-2.496-1.092c-1.583-0.941-2.922-2.268-3.884-3.812
									C286.979,249.503,286.275,247.804,285.931,246.039z"/>
							</g>
						</g>
						<g>
							<path style="fill:#0B0B3A;" d="M379.604,344.642c-0.274,0-0.545-0.044-0.813-0.132c-3.143-1.024-4.337-7.912-4.463-8.693
								l-0.143-0.891l0.872,0.228c0.772,0.202,7.569,2.06,8.377,5.164c0.262,1.009-0.102,1.996-1.08,2.935
								C381.423,344.175,380.5,344.642,379.604,344.642z M375.665,336.553c0.487,2.298,1.68,6.249,3.491,6.839
								c0.692,0.225,1.492-0.105,2.377-0.983c0.664-0.637,0.911-1.222,0.763-1.795C381.828,338.817,377.935,337.26,375.665,336.553z
								"/>
						</g>
						<g>
							
								<rect x="334.81" y="247.332" transform="matrix(0.7104 -0.7038 0.7038 0.7104 -112.6812 325.0069)" style="fill:#FFC25B;" width="7.538" height="104.183"/>
							
								<rect x="297.223" y="260.17" transform="matrix(0.7104 -0.7038 0.7038 0.7104 -96.8647 287.5658)" style="fill:#FFA92C;" width="7.538" height="2.628"/>
						</g>
						
							<rect x="334.81" y="247.332" transform="matrix(0.7104 -0.7038 0.7038 0.7104 -112.6812 325.0069)" style="fill:#FF8736;" width="7.538" height="104.183"/>
						
							<rect x="297.223" y="260.17" transform="matrix(0.7104 -0.7038 0.7038 0.7104 -96.8647 287.5658)" style="fill:#0B0B3A;" width="7.538" height="2.628"/>
						<polygon style="fill:#FFC25B;" points="377.916,333.776 375.885,335.785 302.578,261.782 300.726,259.919 297.392,263.207 
							302.746,257.898 304.598,259.762 						"/>
						
							<rect x="370.955" y="335.172" transform="matrix(0.7104 -0.7038 0.7038 0.7104 -127.8907 361.0112)" style="fill:#0B0B3A;" width="7.538" height="1.471"/>
					</g>
					<g id="XMLID_172_">
						<path id="XMLID_180_" style="fill:#FFBC9F;" d="M365.677,325.28l-3.158-2.626c0,0-0.93,1.54-1.613,1.752
							c-0.159,0.049-0.667-0.098-0.834-0.098c-0.9-0.003-1.446,0.285-2.551,0.791c-0.744,0.341-1.724,0.651-1.763,0.949
							c-0.04,0.298,0.477,0.767,0.996,0.729c0.063-0.005,0.152-0.024,0.256-0.054c0.005,0.084,0.015,0.177,0.059,0.314
							c0.214,0.662,3.315,4.99,6.396,0.283C364.163,326.252,365.677,325.28,365.677,325.28z"/>
						<path id="XMLID_177_" style="fill:#35AAD3;" d="M367.271,294.488c1.044,3.21,2.155,8.284,4.254,12.583
							c0.045,0.101,0.09,0.191,0.135,0.269c0.011,0.022,0.023,0.034,0.034,0.056c0,0,0.045,0.191,0.157,0.471
							c0.382,0.887,1.414,2.694,3.749,2.57c0.112,0,0.415,0.011,0.797,0.034c0.46,0.023,1.033,0.034,1.56,0
							c0.651-0.045,1.224-0.168,1.414-0.494c0.011,0,0.011-0.011,0.011-0.011c0.022-0.067,0.056-0.18,0.079-0.326
							c0.011-0.056,0.034-0.112,0.034-0.18c0.022-0.056,0.022-0.123,0.034-0.191c0.022-0.18,0.034-0.359,0.045-0.539
							c0.011-0.09,0.011-0.18,0.011-0.269c0.023-1.145-0.18-2.267-0.213-2.627c-0.337-3.614-3.906-14.928-5.118-19.643
							c-0.18-0.696-0.572-1.313-1.111-1.74c-0.472-0.393-1.055-0.64-1.695-0.674c-0.011,0-0.011,0-0.022-0.011
							c-0.09,0-0.18-0.011-0.269,0c-1.582,0.045-2.671,1.291-3.401,2.784c-0.483,0.988-0.808,2.054-0.932,3.132
							C366.609,291.277,366.778,292.939,367.271,294.488z"/>
						<path id="XMLID_173_" style="fill:#35AAD3;" d="M361.693,323.784l2.122,2.143l0.011,0.011l0.516,0.449
							c0,0,4.007-3.48,7.128-6.42c2.885-2.739,5.826-5.792,7.655-9.451c0.09-0.168,0.18-0.359,0.258-0.528c0-0.011,0-0.011,0-0.022
							c0.022-0.067,0.056-0.18,0.079-0.326c0.011-0.056,0.034-0.112,0.034-0.18c0.022-0.056,0.022-0.123,0.034-0.191
							c0.022-0.18,0.034-0.359,0.045-0.539c0.011-0.09,0.011-0.18,0.011-0.269c-0.011-0.685-0.18-1.459-0.73-2.11
							c-0.045-0.056-0.101-0.112-0.146-0.168c-0.213-0.213-0.471-0.404-0.786-0.573c-0.191-0.101-0.393-0.191-0.584-0.247
							c-2.312-0.808-4.467,0.606-4.467,0.606c-0.124,0.123-0.258,0.258-0.382,0.404c-0.269,0.292-0.55,0.617-0.831,0.965
							c-0.775,0.988-1.549,2.189-2.155,3.603C367.597,315.354,361.693,323.784,361.693,323.784z"/>
					</g>
					<path id="XMLID_171_" style="fill:#FFD4C5;" d="M314.802,280.77c0,0-4.812-3.35-5.027-5.91
						c-0.238-2.828,1.75-4.187,3.059-2.627c2.058,2.454,1.504,6.886,1.504,6.886L314.802,280.77L314.802,280.77z"/>
				</g>
			</g>
			<g>
				<rect x="410.926" y="244.095" style="fill:#FFDC8F;" width="11.875" height="13.804"/>
				<path style="fill:#FF8736;" d="M417.713,245.517c0,0.457-0.371,0.828-0.828,0.828c-0.457,0-0.828-0.371-0.828-0.828
					c0-0.457,0.371-0.828,0.828-0.828C417.342,244.688,417.713,245.059,417.713,245.517z"/>
			</g>
			<g>
				<rect x="428.063" y="239.443" style="fill:#FFDC8F;" width="11.875" height="13.804"/>
				<path style="fill:#FF8736;" d="M434.849,240.865c0,0.457-0.371,0.828-0.828,0.828c-0.457,0-0.828-0.371-0.828-0.828
					c0-0.457,0.371-0.828,0.828-0.828C434.479,240.037,434.849,240.407,434.849,240.865z"/>
			</g>
			<path style="fill:#FFFFFF;" d="M286.966,242.095c0,0-4.669-7.597-1.035-8.25C289.64,233.178,287.626,240.97,286.966,242.095z"/>
			<path style="fill:#FFFFFF;" d="M288.106,242.095c0,0,1.598-5.289,3.763-3.063C294.056,241.282,288.106,242.095,288.106,242.095z"
				/>
		</g>
		<path style="opacity:0.35;fill:#C3ECFE;" d="M417.713,164.667c0,0.004-0.986,37.667,30.679,41.167
			c6.155,0.596,17.457,0.311,16.668-8.686c-0.416-4.736-4.332-10.232-8.835-11.898c-3.887-1.438-7.968-2.356-11.798-3.954
			c-1.946-0.812-3.828-2.014-4.888-3.838c-1.989-3.423-1.101-7.956-2.547-11.659c-1.435-3.676-3.997-6.922-7.218-9.198
			c-4.646-3.284-10.484-3.295-11.807,3.177C417.633,161.415,417.756,163.016,417.713,164.667z"/>
		<path style="opacity:0.35;fill:#C3ECFE;" d="M161.257,130.59c-0.82,0.672-1.729,1.25-2.608,1.849
			c-9.482,6.462-17.934,17.204-18.395,29.078c-0.59,15.198-23.274,0.649-17.234-21.058c6.04-21.708,25.249-21.708,30.492-21
			c3.094,0.418,8.969,1.85,10.171,5.28c0.549,1.565-0.087,3.343-1.153,4.614C162.147,129.807,161.716,130.213,161.257,130.59z"/>
	</g>
</g>
<g id="DESIGNED_BY_FREEPIK">
	<g>
		<g>
			<g id="XMLID_287_">
				<g id="XMLID_306_">
					<path id="XMLID_314_" style="fill:#A5B7C6;" d="M260.104,478.971c-0.432,0.443-0.803,0.931-1.108,1.453l-0.465-0.241
						c-0.067-0.298-0.349-0.502-0.659-0.466c-0.331,0.039-0.567,0.339-0.529,0.67c0.039,0.331,0.339,0.568,0.67,0.529
						c0.066-0.008,0.127-0.026,0.184-0.052l0.451,0.234c-0.251,0.554-0.433,1.139-0.539,1.744l0.747,0.132
						c0.23-1.306,0.85-2.507,1.792-3.473L260.104,478.971z"/>
					<path id="XMLID_313_" style="fill:#A5B7C6;" d="M265.592,476.669c-0.171,0-0.341,0.006-0.51,0.017l-0.074-0.626
						c0.188-0.149,0.296-0.389,0.266-0.645c-0.046-0.393-0.402-0.674-0.795-0.628c-0.393,0.046-0.674,0.402-0.628,0.795
						c0.03,0.254,0.189,0.461,0.404,0.564l0.074,0.624c-0.714,0.116-1.403,0.332-2.06,0.646l0.327,0.684
						c0.934-0.447,1.942-0.673,2.995-0.673c0.496,0,0.993,0.053,1.475,0.158l0.161-0.741
						C266.692,476.727,266.142,476.669,265.592,476.669z"/>
					<path id="XMLID_312_" style="fill:#A5B7C6;" d="M272.194,479.216c0.331-0.04,0.566-0.341,0.526-0.672
						c-0.04-0.331-0.341-0.566-0.672-0.526c-0.309,0.038-0.535,0.304-0.53,0.609l-0.416,0.363c-0.418-0.43-0.889-0.813-1.408-1.139
						l-0.404,0.641c1.134,0.715,2.021,1.726,2.563,2.925l0.69-0.313c-0.251-0.554-0.567-1.072-0.942-1.545l0.402-0.351
						C272.065,479.221,272.129,479.224,272.194,479.216z"/>
					<path id="XMLID_311_" style="fill:#A5B7C6;" d="M265.044,486.877c-0.386,0.023-0.775,0.035-1.157,0.035
						c-0.88,0-1.733-0.061-2.478-0.179c-0.39-0.062-0.846-0.155-1.27-0.292c1.046,1.861,3.069,3.125,5.388,3.125
						c2.855,0,5.262-1.916,5.95-4.504c-0.682,0.449-1.505,0.825-2.459,1.123C267.839,486.552,266.463,486.792,265.044,486.877z"/>
					<path id="XMLID_307_" style="fill:#A5B7C6;" d="M265.592,478.185c-3.352,0-6.08,2.666-6.08,5.944
						c0,0.426,0.046,0.849,0.137,1.261c0.673,0.483,2.706,0.89,5.348,0.731c2.879-0.173,5.297-0.957,6.672-2.159
						c-0.006-0.195-0.021-0.39-0.045-0.582C271.244,480.418,268.65,478.185,265.592,478.185z M263.432,484.7
						c-1.02,0-1.85-0.83-1.85-1.85c0-1.02,0.83-1.85,1.85-1.85c1.02,0,1.85,0.83,1.85,1.85
						C265.282,483.87,264.452,484.7,263.432,484.7z M268.17,483.791c-0.75,0-1.36-0.61-1.36-1.36c0-0.75,0.61-1.361,1.36-1.361
						c0.75,0,1.361,0.61,1.361,1.361C269.53,483.181,268.92,483.791,268.17,483.791z"/>
				</g>
				<path id="XMLID_304_" style="fill:#A5B7C6;" d="M281.595,480.052c-0.295-0.116-0.805-0.309-1.382-0.237
					c-0.551,0.068-0.844,0.34-0.844,1.007v0.866h2.228v1.717h-2.228v5.455h-1.932v-5.455h-1.34v-1.717h1.34v-0.888
					c0-1.68,0.896-2.783,2.568-2.783c0.643,0,1.157,0.122,1.59,0.308L281.595,480.052z"/>
				<path id="XMLID_302_" style="fill:#A5B7C6;" d="M286.298,483.384c-0.177-0.03-0.358-0.046-0.526-0.046
					c-0.896,0-1.51,0.548-1.51,1.613v3.908h-1.932v-7.172h1.873v0.785c0.451-0.674,1.14-0.977,2.021-0.977
					c0.414,0,0.848,0.128,1.094,0.337L286.298,483.384z"/>
				<path id="XMLID_299_" style="fill:#A5B7C6;" d="M293.965,485.262c0,0.222-0.015,0.489-0.037,0.651h-5.085
					c0.207,1.036,0.933,1.488,1.843,1.488c0.622,0,1.295-0.252,1.813-0.688l1.133,1.243c-0.814,0.748-1.85,1.088-3.057,1.088
					c-2.198,0-3.723-1.495-3.723-3.753c0-2.257,1.48-3.797,3.627-3.797C292.544,481.495,293.958,483.027,293.965,485.262z
					 M288.851,484.596h3.175c-0.177-0.918-0.733-1.436-1.562-1.436C289.554,483.16,289.021,483.708,288.851,484.596z"/>
				<path id="XMLID_296_" style="fill:#A5B7C6;" d="M301.618,485.262c0,0.222-0.015,0.489-0.037,0.651h-5.085
					c0.207,1.036,0.933,1.488,1.843,1.488c0.622,0,1.295-0.252,1.814-0.688l1.132,1.243c-0.814,0.748-1.85,1.088-3.057,1.088
					c-2.198,0-3.723-1.495-3.723-3.753c0-2.257,1.48-3.797,3.627-3.797C300.197,481.495,301.611,483.027,301.618,485.262z
					 M296.504,484.596h3.175c-0.178-0.918-0.733-1.436-1.562-1.436C297.207,483.16,296.674,483.708,296.504,484.596z"/>
				<path id="XMLID_293_" style="fill:#A5B7C6;" d="M309.964,485.27c0,2.154-1.495,3.775-3.471,3.775
					c-0.962,0-1.643-0.378-2.109-0.933v3.708h-1.924v-10.133h1.887v0.792c0.466-0.585,1.155-0.984,2.139-0.984
					C308.469,481.495,309.964,483.116,309.964,485.27z M304.287,485.27c0,1.132,0.748,1.976,1.843,1.976
					c1.14,0,1.85-0.881,1.85-1.976c0-1.095-0.71-1.976-1.85-1.976C305.035,483.293,304.287,484.137,304.287,485.27z"/>
				<path id="XMLID_290_" style="fill:#A5B7C6;" d="M313.068,479.341c0,0.696-0.54,1.229-1.236,1.229
					c-0.696,0-1.229-0.533-1.229-1.229c0-0.696,0.533-1.243,1.229-1.243C312.527,478.098,313.068,478.645,313.068,479.341z
					 M312.809,488.859h-1.932v-7.172h1.932V488.859z"/>
				<path id="XMLID_288_" style="fill:#A5B7C6;" d="M316.032,484.241l2.701-2.554h2.368l-3.479,3.375l3.501,3.797h-2.376
					l-2.716-2.901v2.901H314.1v-10.658h1.932V484.241z"/>
			</g>
			<g>
				<path style="fill:#A5B7C6;" d="M184.412,488.794v-1.055c-0.527,0.718-1.391,1.23-2.387,1.23c-1.846,0-3.149-1.406-3.149-3.706
					c0-2.256,1.289-3.721,3.149-3.721c0.952,0,1.816,0.469,2.387,1.245v-3.765h1.099v9.77H184.412z M184.412,486.875v-3.208
					c-0.395-0.615-1.245-1.143-2.124-1.143c-1.421,0-2.27,1.172-2.27,2.739c0,1.567,0.85,2.724,2.27,2.724
					C183.168,487.988,184.017,487.491,184.412,486.875z"/>
				<path style="fill:#A5B7C6;" d="M186.932,485.25c0-2.051,1.465-3.706,3.486-3.706c2.139,0,3.398,1.67,3.398,3.794v0.279h-5.727
					c0.088,1.333,1.025,2.446,2.549,2.446c0.805,0,1.626-0.322,2.182-0.893l0.527,0.718c-0.703,0.703-1.655,1.084-2.812,1.084
					C188.44,488.97,186.932,487.461,186.932,485.25z M190.403,482.452c-1.509,0-2.256,1.274-2.314,2.358h4.643
					C192.718,483.755,192.015,482.452,190.403,482.452z"/>
				<path style="fill:#A5B7C6;" d="M194.607,487.857l0.571-0.791c0.469,0.542,1.362,1.011,2.329,1.011
					c1.084,0,1.67-0.513,1.67-1.216c0-1.714-4.38-0.659-4.38-3.281c0-1.098,0.952-2.036,2.636-2.036
					c1.201,0,2.051,0.454,2.622,1.026l-0.513,0.762c-0.424-0.513-1.201-0.894-2.109-0.894c-0.967,0-1.567,0.483-1.567,1.113
					c0,1.553,4.38,0.527,4.38,3.281c0,1.187-0.952,2.139-2.783,2.139C196.306,488.97,195.325,488.618,194.607,487.857z"/>
				<path style="fill:#A5B7C6;" d="M201.477,479.976c0-0.41,0.337-0.747,0.732-0.747c0.41,0,0.747,0.337,0.747,0.747
					c0,0.41-0.337,0.732-0.747,0.732C201.814,480.708,201.477,480.386,201.477,479.976z M201.667,488.794v-7.075h1.099v7.075
					H201.667z"/>
				<path style="fill:#A5B7C6;" d="M204.582,490.611l0.556-0.82c0.586,0.703,1.289,0.967,2.3,0.967c1.172,0,2.27-0.571,2.27-2.124
					v-1.011c-0.513,0.718-1.377,1.26-2.373,1.26c-1.845,0-3.149-1.377-3.149-3.662c0-2.27,1.289-3.677,3.149-3.677
					c0.952,0,1.802,0.469,2.373,1.245v-1.069h1.098v6.87c0,2.344-1.641,3.076-3.369,3.076
					C206.237,491.665,205.417,491.431,204.582,490.611z M209.709,486.758v-3.091c-0.381-0.615-1.23-1.143-2.109-1.143
					c-1.421,0-2.27,1.128-2.27,2.695c0,1.553,0.849,2.695,2.27,2.695C208.478,487.915,209.328,487.374,209.709,486.758z"/>
				<path style="fill:#A5B7C6;" d="M217.413,488.794v-4.629c0-1.245-0.63-1.641-1.582-1.641c-0.865,0-1.685,0.527-2.095,1.099v5.17
					h-1.099v-7.075h1.099v1.025c0.498-0.586,1.464-1.201,2.519-1.201c1.48,0,2.256,0.747,2.256,2.285v4.966H217.413z"/>
				<path style="fill:#A5B7C6;" d="M219.932,485.25c0-2.051,1.465-3.706,3.486-3.706c2.139,0,3.398,1.67,3.398,3.794v0.279h-5.727
					c0.088,1.333,1.025,2.446,2.549,2.446c0.806,0,1.626-0.322,2.183-0.893l0.527,0.718c-0.703,0.703-1.655,1.084-2.812,1.084
					C221.441,488.97,219.932,487.461,219.932,485.25z M223.404,482.452c-1.509,0-2.256,1.274-2.314,2.358h4.643
					C225.718,483.755,225.015,482.452,223.404,482.452z"/>
				<path style="fill:#A5B7C6;" d="M233.35,488.794v-1.055c-0.527,0.718-1.392,1.23-2.388,1.23c-1.846,0-3.149-1.406-3.149-3.706
					c0-2.256,1.289-3.721,3.149-3.721c0.952,0,1.817,0.469,2.388,1.245v-3.765h1.098v9.77H233.35z M233.35,486.875v-3.208
					c-0.396-0.615-1.245-1.143-2.124-1.143c-1.421,0-2.27,1.172-2.27,2.739c0,1.567,0.849,2.724,2.27,2.724
					C232.105,487.988,232.954,487.491,233.35,486.875z"/>
				<path style="fill:#A5B7C6;" d="M239.692,488.794v-9.77h1.098v3.765c0.572-0.776,1.421-1.245,2.388-1.245
					c1.845,0,3.149,1.465,3.149,3.721c0,2.299-1.304,3.706-3.149,3.706c-0.996,0-1.86-0.513-2.388-1.23v1.055H239.692z
					 M242.9,487.988c1.436,0,2.285-1.157,2.285-2.724c0-1.568-0.85-2.739-2.285-2.739c-0.864,0-1.728,0.527-2.109,1.143v3.208
					C241.171,487.491,242.036,487.988,242.9,487.988z"/>
				<path style="fill:#A5B7C6;" d="M247.528,490.567c0.161,0.073,0.425,0.117,0.601,0.117c0.483,0,0.805-0.161,1.055-0.747
					l0.469-1.069l-2.959-7.148h1.187l2.358,5.801l2.344-5.801h1.201l-3.545,8.51c-0.425,1.025-1.143,1.421-2.08,1.435
					c-0.234,0-0.601-0.044-0.805-0.103L247.528,490.567z"/>
			</g>
		</g>
	</g>
</g>
</svg>
